<svg width="50" height="24" viewBox="0 0 50 24" fill="none" xmlns="http://www.w3.org/2000/svg">
<path d="M2 10.5C1.17157 10.5 0.5 11.1716 0.5 12C0.5 12.8284 1.17157 13.5 2 13.5V10.5ZM49.5607 13.0607C50.1464 12.4749 50.1464 11.5251 49.5607 10.9393L40.0147 1.3934C39.4289 0.807611 38.4792 0.807611 37.8934 1.3934C37.3076 1.97919 37.3076 2.92893 37.8934 3.51472L46.3787 12L37.8934 20.4853C37.3076 21.0711 37.3076 22.0208 37.8934 22.6066C38.4792 23.1924 39.4289 23.1924 40.0147 22.6066L49.5607 13.0607ZM2 13.5H48.5V10.5H2V13.5Z" fill="black"/>
</svg>
