<svg width="35" height="27" viewBox="0 0 35 27" fill="none" xmlns="http://www.w3.org/2000/svg">
<circle cx="23.1208" cy="7.07152" r="6.83367" fill="black"/>
<path d="M32.5412 26.883C33.5142 26.883 34.3172 26.0894 34.1645 25.1284C34.0272 24.2638 33.7884 23.4163 33.4518 22.6037C32.8899 21.247 32.0662 20.0142 31.0278 18.9759C29.9894 17.9375 28.7567 17.1138 27.4 16.5518C26.0433 15.9899 24.5892 15.7006 23.1207 15.7006C21.6522 15.7006 20.1981 15.9899 18.8414 16.5518C17.4847 17.1138 16.2519 17.9375 15.2136 18.9759C14.1752 20.0142 13.3515 21.247 12.7895 22.6037C12.4529 23.4163 12.2142 24.2638 12.0768 25.1284C11.9242 26.0894 12.7271 26.883 13.7001 26.883L32.5412 26.883Z" fill="black"/>
<path fill-rule="evenodd" clip-rule="evenodd" d="M0 13.9277C0 14.7964 0.331699 15.5876 0.875351 16.1816H0.840994L6.2779 22.5431L11.5084 16.423C12.1534 15.8142 12.556 14.9512 12.556 13.9943C12.556 12.15 11.0609 10.6549 9.21662 10.6549C7.96032 10.6549 6.86605 11.3487 6.29601 12.374C5.73692 11.3122 4.62268 10.5883 3.33936 10.5883C1.49508 10.5883 0 12.0834 0 13.9277Z" fill="black"/>
</svg>
