<svg width="249" height="249" viewBox="0 0 249 249" fill="none" xmlns="http://www.w3.org/2000/svg">
<path fill-rule="evenodd" clip-rule="evenodd" d="M248.464 124.768C248.464 193.38 192.844 249 124.232 249C55.6206 249 0 193.38 0 124.768C0 56.1565 55.6206 0.535889 124.232 0.535889C192.844 0.535889 248.464 56.1565 248.464 124.768ZM158.744 88.1976C158.744 107.083 143.435 122.393 124.549 122.393C105.664 122.393 90.3544 107.083 90.3544 88.1976C90.3544 69.3122 105.664 54.0026 124.549 54.0026C143.435 54.0026 158.744 69.3122 158.744 88.1976ZM179.811 177.34C180.575 182.149 176.557 186.12 171.688 186.12H77.4089C72.54 186.12 68.5221 182.149 69.286 177.34C69.9734 173.014 71.1681 168.773 72.8523 164.706C75.6644 157.918 79.786 151.749 84.9819 146.553C90.1779 141.357 96.3464 137.236 103.135 134.424C109.924 131.612 117.2 130.164 124.548 130.164C131.897 130.164 139.173 131.612 145.962 134.424C152.751 137.236 158.919 141.357 164.115 146.553C169.311 151.749 173.433 157.918 176.245 164.706C177.929 168.773 179.124 173.014 179.811 177.34Z" fill="#C44B6A"/>
</svg>
