<svg width="657" height="258" viewBox="0 0 657 258" fill="none" xmlns="http://www.w3.org/2000/svg">
<g opacity="0.5" filter="url(#filter0_f_1391_9412)">
<path fill-rule="evenodd" clip-rule="evenodd" d="M8.69937 27.4473C8.69937 13.3931 20.0925 2 34.1466 2H582.677C596.731 2 608.124 13.3931 608.124 27.4473C608.124 41.5014 596.731 52.8946 582.677 52.8946L561.134 52.8946H549.378C535.324 52.8946 523.931 64.2877 523.931 78.3419C523.931 91.9859 534.669 103.122 548.155 103.76L629.363 103.76C643.446 103.76 654.863 115.177 654.863 129.26C654.863 143.344 643.446 154.76 629.363 154.76H608.833C595.709 155.775 585.375 166.746 585.375 180.131C585.375 192.204 593.782 202.313 605.062 204.923H620.882C634.936 204.923 646.329 216.316 646.329 230.371C646.329 244.425 634.936 255.818 620.882 255.818H47.8467C33.7925 255.818 22.3994 244.425 22.3994 230.371C22.3994 218.298 30.8067 208.189 42.086 205.578H27.4473C13.3931 205.578 2 194.185 2 180.131C2 166.077 13.3931 154.684 27.4473 154.684H104.371C104.033 154.657 103.697 154.625 103.363 154.586C116.033 153.101 125.863 142.329 125.863 129.26C125.863 116.192 116.033 105.42 103.363 103.935C104.347 103.82 105.348 103.76 106.363 103.76L92.5003 103.76C78.417 103.76 67.0003 92.3435 67.0003 78.2602C67.0003 65.0661 77.021 54.2124 89.867 52.8946H34.1466C20.0925 52.8946 8.69937 41.5014 8.69937 27.4473Z" fill="#C44B6A"/>
</g>
<defs>
<filter id="filter0_f_1391_9412" x="0.74149" y="0.74149" width="655.38" height="256.335" filterUnits="userSpaceOnUse" color-interpolation-filters="sRGB">
<feFlood flood-opacity="0" result="BackgroundImageFix"/>
<feBlend mode="normal" in="SourceGraphic" in2="BackgroundImageFix" result="shape"/>
<feGaussianBlur stdDeviation="0.629255" result="effect1_foregroundBlur_1391_9412"/>
</filter>
</defs>
</svg>
